<svg xmlns="http://www.w3.org/2000/svg" version="1.1" xmlns:xlink="http://www.w3.org/1999/xlink"  width="380" height="480"><svg width="380" height="480" viewBox="0 0 380 480" fill="none" xmlns="http://www.w3.org/2000/svg">
<path d="M105.77 122.459V128.928C98.8697 129.144 93.5866 130.006 89.9208 131.516C86.4706 132.809 84.0986 135.397 82.8047 139.278C81.5109 142.944 80.864 148.767 80.864 156.745V317.179C80.864 324.942 81.5109 330.764 82.8047 334.646C84.0986 338.527 86.4706 341.115 89.9208 342.409C93.5866 343.703 98.8697 344.565 105.77 344.997V351.466C100.379 351.034 93.4788 350.819 85.0689 350.819C76.6591 350.603 68.1414 350.495 59.5159 350.495C49.8122 350.495 40.7555 350.603 32.3456 350.819C23.9357 350.819 17.0354 351.034 11.6444 351.466V344.997C18.7604 344.565 24.0436 343.703 27.4938 342.409C31.1596 341.115 33.5316 338.527 34.6098 334.646C35.9036 330.764 36.5505 324.942 36.5505 317.179V156.745C36.5505 148.767 35.9036 142.944 34.6098 139.278C33.5316 135.397 31.1596 132.809 27.4938 131.516C24.0436 130.006 18.7604 129.144 11.6444 128.928V122.459C17.0354 122.674 23.9357 122.89 32.3456 123.106C40.7555 123.321 49.8122 123.429 59.5159 123.429C68.1414 123.429 76.6591 123.321 85.0689 123.106C93.4788 122.89 100.379 122.674 105.77 122.459Z" fill="black" fill-opacity="0.8"></path>
<path d="M136.309 123.289V350.569H127.675V123.289H136.309Z" fill="black" fill-opacity="0.8"></path>
<path d="M340.923 120.993V127.462L224.478 342.561H267.822C276.231 342.561 283.887 341.375 290.787 339.002C297.903 336.63 304.264 332.965 309.871 328.005C315.477 322.83 320.114 315.929 323.779 307.304C327.445 298.678 329.817 288.112 330.896 275.605H338.335C337.688 282.721 337.365 291.994 337.365 303.422C337.365 307.951 337.472 314.528 337.688 323.153C338.119 331.779 338.766 340.728 339.629 350C331.65 349.569 322.917 349.353 313.429 349.353C303.941 349.137 294.453 349.03 284.965 349.03C275.692 349.03 267.067 349.03 259.088 349.03C245.719 349.03 231.595 349.137 216.716 349.353C201.837 349.353 187.82 349.569 174.666 350V343.531L291.757 128.433H247.444C238.818 128.433 231.055 129.511 224.155 131.667C217.255 133.824 211.217 137.382 206.042 142.341C201.082 147.085 196.985 153.662 193.75 162.072C190.516 170.266 188.144 180.509 186.634 192.8H179.195C179.626 189.566 179.842 185.792 179.842 181.479C180.057 177.167 180.165 172.53 180.165 167.571C180.165 163.042 179.949 156.465 179.518 147.84C179.302 139.215 178.763 130.266 177.901 120.993C185.448 121.209 193.642 121.424 202.483 121.64C211.325 121.856 220.166 121.964 229.007 121.964C238.064 121.964 246.15 121.964 253.266 121.964C267.283 121.964 282.054 121.964 297.58 121.964C313.105 121.748 327.553 121.424 340.923 120.993Z" fill="black" fill-opacity="0.8"></path>
</svg><style>@media (prefers-color-scheme: light) { :root { filter: none; } }
</style></svg>